# xmcd
#
# Track frame offsets: 
#        150
#        18197
#        36675
#        55569
#        74773
#        89350
#        106044
#        125300
#        145207
#        164487
#        185487
#        203085
#        220603
#        238558
#        257440
#
# Disc length: 3685 seconds
#
# Revision: 0
# Processed by: cddbd v1.5.2PL0 Copyright (c) Steve Scherf et al.
# Submitted via: ExactAudioCopy v0.95b4
#
DISCID=cf0e630f
DTITLE=Harry Jon Nanos - Bring On The Horizon
DYEAR=2011
DGENRE=Alternative
TTITLE0=Days when we were Young
TTITLE1=Please don't take my Car
TTITLE2=Closer to my heart
TTITLE3=No women no pain
TTITLE4=The key to your heart
TTITLE5=Aint ever going to forget
TTITLE6=I'm in a Place
TTITLE7=Wind Me up
TTITLE8=That's why they run
TTITLE9=Bring on the Horizon
TTITLE10=What's behind us keeps lading away
TTITLE11=I kicked that
TTITLE12=Tommy's got a gun
TTITLE13=Standig next to you
TTITLE14=The Clock stops when you're here
EXTD=
EXTT0=
EXTT1=
EXTT2=
EXTT3=
EXTT4=
EXTT5=
EXTT6=
EXTT7=
EXTT8=
EXTT9=
EXTT10=
EXTT11=
EXTT12=
EXTT13=
EXTT14=
PLAYORDER=
